# xmcd
#
# Track frame offsets:
#	150
#	20062
#	41266
#	63883
#	102787
#	119437
#	142562
#	162641
#	176313
#	208600
#	237257
#	256260
#
# Disc length: 3702 seconds
#
# Revision: 1
# Processed by: cddbd v1.5.2PL0 Copyright (c) Steve Scherf et al.
# Submitted via: audiograbber 1.83.01
#
DISCID=970e740c
DTITLE=B.B. King and Eric Clapton - Riding With the King
DYEAR=1900
DGENRE=Blues
TTITLE0=Riding With the King
TTITLE1=Ten Long Years
TTITLE2=Key To the Highway
TTITLE3=Marry You
TTITLE4=Three O´Clock Blues
TTITLE5=Help the Poor
TTITLE6=I Wana Be
TTITLE7=Worried Live Blues
TTITLE8=Days Of Old
TTITLE9=When my Heart Beats Like A Hammer
TTITLE10=Hold On I´m Coming
TTITLE11=Coe Rain Or Come Shine
EXTD=
EXTT0=
EXTT1=
EXTT2=
EXTT3=
EXTT4=
EXTT5=
EXTT6=
EXTT7=
EXTT8=
EXTT9=
EXTT10=
EXTT11=
PLAYORDER=
